HIERARCHY
ROOT Hips
{
	OFFSET 20.463800 7.826293 43.778099
	CHANNELS 6 Xposition Yposition Zposition Zrotation Xrotation Yrotation
	JOINT Chest
	{
		OFFSET -0.076000 1.394599 8.347801
		CHANNELS 6 Xposition Yposition Zposition Zrotation Xrotation Yrotation
		JOINT Chest2
		{
			OFFSET 0.000000 0.000000 3.321602
			CHANNELS 6 Xposition Yposition Zposition Zrotation Xrotation Yrotation
			JOINT Neck
			{
				OFFSET 0.000000 -0.000002 7.732101
				CHANNELS 6 Xposition Yposition Zposition Zrotation Xrotation Yrotation
				JOINT Head
				{
					OFFSET 0.000000 0.000000 2.173897
					CHANNELS 6 Xposition Yposition Zposition Zrotation Xrotation Yrotation
					End Site
					{
						OFFSET 0.000000 -0.000002 10.080803
					}
				}
			}
			JOINT LeftCollar
			{
				OFFSET 2.718100 -2.003101 4.670502
				CHANNELS 6 Xposition Yposition Zposition Zrotation Xrotation Yrotation
				JOINT LeftShoulder
				{
					OFFSET 4.147100 0.000000 0.000000
					CHANNELS 6 Xposition Yposition Zposition Zrotation Xrotation Yrotation
					JOINT LeftElbow
					{
						OFFSET 0.000000 0.000002 -10.254799
						CHANNELS 6 Xposition Yposition Zposition Zrotation Xrotation Yrotation
						JOINT LeftWrist
						{
							OFFSET 0.000000 0.000002 -12.664398
							CHANNELS 6 Xposition Yposition Zposition Zrotation Xrotation Yrotation
							End Site
							{
								OFFSET 0.000000 0.000000 -2.173901
							}
						}
					}
				}
			}
			JOINT RightCollar
			{
				OFFSET -2.489500 -2.085301 4.979698
				CHANNELS 6 Xposition Yposition Zposition Zrotation Xrotation Yrotation
				JOINT RightShoulder
				{
					OFFSET -4.160400 0.000000 0.000000
					CHANNELS 6 Xposition Yposition Zposition Zrotation Xrotation Yrotation
					JOINT RightElbow
					{
						OFFSET 0.000000 0.000002 -10.253998
						CHANNELS 6 Xposition Yposition Zposition Zrotation Xrotation Yrotation
						JOINT RightWrist
						{
							OFFSET 0.000000 0.000002 -12.768700
							CHANNELS 6 Xposition Yposition Zposition Zrotation Xrotation Yrotation
							End Site
							{
								OFFSET 0.000000 0.000000 -2.173901
							}
						}
					}
				}
			}
		}
	}
	JOINT LeftHip
	{
		OFFSET 2.212400 -0.073599 -2.641499
		CHANNELS 6 Xposition Yposition Zposition Zrotation Xrotation Yrotation
		JOINT LeftKnee
		{
			OFFSET 0.000000 0.000003 -17.950598
			CHANNELS 6 Xposition Yposition Zposition Zrotation Xrotation Yrotation
			JOINT LeftAnkle
			{
				OFFSET 0.000000 0.000003 -19.053900
				CHANNELS 6 Xposition Yposition Zposition Zrotation Xrotation Yrotation
				End Site
				{
					OFFSET 0.000000 -8.430400 -0.000001
				}
			}
		}
	}
	JOINT RightHip
	{
		OFFSET -2.162800 -0.306099 -2.581299
		CHANNELS 6 Xposition Yposition Zposition Zrotation Xrotation Yrotation
		JOINT RightKnee
		{
			OFFSET 0.000000 0.000003 -18.327099
			CHANNELS 6 Xposition Yposition Zposition Zrotation Xrotation Yrotation
			JOINT RightAnkle
			{
				OFFSET 0.000000 0.000003 -18.423401
				CHANNELS 6 Xposition Yposition Zposition Zrotation Xrotation Yrotation
				End Site
				{
					OFFSET 0.000000 -8.995800 -0.000002
				}
			}
		}
	}
}
MOTION
Frames: 8
Frame Time: 0.016667
23.383398 11.944092 43.593407 22.706851 3.760628 3.429998 -0.076000 1.394596 8.347798 -22.728026 -4.090398 -8.352657 -0.000002 -0.000003 3.321600 15.323024 -1.086562 0.686110 0.000003 -0.000004 7.732098 -19.380744 5.432001 -6.955137 0.000007 0.000000 2.173892 -5.146787 -4.345942 -2.648765 2.718103 -2.003101 4.670505 4.701369 -3.068781 -31.483733 4.147107 0.000004 0.000007 -19.955788 -20.969369 -112.569680 -0.000004 0.000005 -10.254806 51.457662 -4.661914 1.864314 -0.000002 -0.000006 -12.664399 65.161439 1.965389 20.107939 -2.489501 -2.085300 4.979693 -8.596182 0.016386 8.557734 -4.160405 -0.000001 -0.000001 23.229521 -27.850049 121.631394 -0.000002 0.000005 -10.253998 -67.029762 -4.227806 -3.660894 0.000000 0.000004 -12.768700 -44.934927 -16.517030 -24.565446 2.212400 -0.073603 -2.641507 -2.412750 -4.381949 -7.455126 0.000005 -0.000001 -17.950600 -13.065465 37.805859 43.429871 0.000005 0.000000 -19.053900 4.976562 41.546596 13.572714 -2.162801 -0.306100 -2.581306 -17.716382 -16.906397 -2.548208 -0.000009 -0.000001 -18.327099 -18.320128 38.102145 -3.926855 -0.000004 -0.000003 -18.423403 6.399194 5.588419 2.306883 
23.323797 11.975792 43.548500 23.144354 3.534396 3.370526 -0.076000 1.394598 8.347805 -23.134595 -4.132235 -8.532348 -0.000001 0.000000 3.321601 15.554724 -0.777011 0.729395 0.000001 -0.000003 7.732108 -21.518103 5.339689 -5.651335 -0.000003 -0.000002 2.173895 -4.631457 -5.084910 -3.693861 2.718103 -2.003102 4.670515 3.179578 -1.621571 -31.506911 4.147102 0.000002 0.000003 -17.971034 -21.466689 -112.559373 -0.000005 0.000005 -10.254794 52.882169 -4.441618 1.865272 0.000003 0.000001 -12.664403 63.651626 2.756574 20.713450 -2.489499 -2.085301 4.979705 -8.284492 -0.335381 8.989388 -4.160406 0.000000 -0.000003 21.453103 -27.900945 119.896745 0.000004 0.000005 -10.254000 -68.667566 -4.436572 -4.255634 -0.000002 0.000004 -12.768703 -43.833825 -15.404535 -23.411464 2.212398 -0.073600 -2.641501 -2.501277 -4.359446 -7.574008 0.000008 -0.000003 -17.950607 -13.652642 37.954948 43.793776 0.000002 -0.000003 -19.053902 3.434605 37.720328 27.740361 -2.162803 -0.306099 -2.581293 -18.089351 -16.854839 -2.441499 -0.000007 -0.000002 -18.327097 -17.816455 38.389485 -4.150310 -0.000002 0.000002 -18.423397 6.320007 5.393267 1.862670 
23.282598 12.029192 43.503201 23.272157 3.302197 3.032833 -0.076001 1.394595 8.347802 -23.169124 -3.698715 -8.436623 -0.000000 0.000000 3.321607 15.851628 -0.927276 0.759454 0.000006 -0.000001 7.732103 -23.120848 5.031514 -4.729802 0.000001 -0.000002 2.173899 -3.642209 -4.946393 -4.596681 2.718107 -2.003099 4.670512 3.110462 -1.676641 -30.657550 4.147099 0.000003 0.000007 -18.468005 -21.554129 -113.019400 0.000001 0.000003 -10.254800 50.754231 -4.244007 1.246607 0.000000 0.000001 -12.664392 65.283351 2.238231 20.197585 -2.489492 -2.085299 4.979698 -8.948349 -1.079474 8.785349 -4.160405 -0.000002 0.000003 22.329406 -28.045593 119.859260 0.000002 -0.000000 -10.254004 -67.241013 -4.140029 -3.844902 -0.000001 -0.000008 -12.768703 -44.646939 -15.318975 -22.987471 2.212398 -0.073601 -2.641502 -2.829404 -4.264840 -7.290589 0.000005 -0.000001 -17.950605 -13.576495 38.086269 44.079534 0.000004 -0.000001 -19.053902 3.308290 35.497227 35.205250 -2.162800 -0.306102 -2.581301 -18.016533 -17.139591 -1.844473 -0.000005 -0.000002 -18.327105 -19.929479 38.964528 -3.289407 -0.000002 -0.000001 -18.423401 7.228184 5.992643 4.344848 
23.239399 12.038991 43.450302 23.080063 3.284855 3.490011 -0.076005 1.394597 8.347799 -22.970223 -3.511294 -9.198100 -0.000001 -0.000001 3.321596 15.707350 -0.686972 0.757701 0.000003 -0.000001 7.732093 -23.478290 4.551919 -5.014733 -0.000001 -0.000001 2.173896 -4.515993 -5.099921 -4.021488 2.718107 -2.003101 4.670507 3.290561 -1.990160 -30.276907 4.147095 0.000004 0.000004 -18.150490 -21.311329 -112.739355 -0.000004 0.000002 -10.254791 55.339951 -4.307326 1.778234 -0.000003 0.000000 -12.664395 61.512192 2.554031 20.263249 -2.489497 -2.085301 4.979692 -8.741377 -1.124721 8.617684 -4.160405 -0.000003 0.000012 22.982789 -29.982328 119.967382 -0.000000 -0.000001 -10.254000 -65.747845 -4.113452 -3.647719 0.000001 -0.000004 -12.768713 -44.297151 -14.794555 -22.893633 2.212398 -0.073601 -2.641499 -2.560382 -4.510322 -7.831452 0.000005 -0.000001 -17.950602 -14.161037 38.432276 44.634866 0.000003 0.000001 -19.053902 3.622054 35.602839 34.149392 -2.162805 -0.306101 -2.581302 -17.963319 -16.908924 -2.290699 -0.000001 -0.000001 -18.327095 -18.776161 38.910481 -4.050373 -0.000004 0.000003 -18.423401 6.856474 5.775124 3.506016 
23.208399 12.117793 43.381302 22.652654 3.421172 3.074141 -0.075999 1.394599 8.347800 -22.540248 -3.950435 -8.830960 0.000003 0.000001 3.321602 15.704084 -0.853496 0.738590 -0.000002 -0.000001 7.732108 -23.921512 4.497415 -5.419043 0.000002 -0.000003 2.173901 -4.805237 -5.130804 -3.829650 2.718095 -2.003101 4.670511 2.310252 -0.212719 -30.430695 4.147097 0.000001 0.000009 -16.236198 -21.839842 -112.646048 0.000002 0.000004 -10.254790 55.671806 -4.395793 1.797596 -0.000000 0.000003 -12.664406 62.032434 2.838710 19.925144 -2.489502 -2.085302 4.979700 -7.673663 0.470112 7.144022 -4.160405 0.000000 0.000004 21.832840 -29.905915 120.837794 0.000010 0.000004 -10.254003 -69.444227 -3.853297 -3.469359 0.000000 -0.000000 -12.768705 -41.511400 -14.958114 -22.650176 2.212401 -0.073599 -2.641503 -1.720322 -5.061743 -7.518145 0.000004 -0.000000 -17.950603 -14.776949 38.689152 44.960960 0.000003 -0.000002 -19.053902 4.776880 39.893673 20.085406 -2.162803 -0.306098 -2.581302 -17.379558 -17.608890 -1.846361 -0.000003 -0.000003 -18.327095 -19.480060 39.474839 -3.628430 -0.000001 0.000000 -18.423399 7.361745 5.728028 3.430988 
23.190798 12.153491 43.342899 21.932712 2.907334 3.056205 -0.076000 1.394598 8.347804 -21.726178 -2.950272 -8.759748 -0.000002 0.000002 3.321596 15.750648 -1.002833 0.734482 0.000000 -0.000003 7.732104 -24.391403 3.556006 -5.764172 -0.000000 -0.000001 2.173892 -5.578084 -5.124277 -3.849498 2.718098 -2.003100 4.670516 3.476098 -2.460082 -30.492683 4.147109 0.000002 0.000005 -17.779631 -21.498813 -111.895000 0.000000 0.000005 -10.254803 51.573884 -4.524001 1.655015 -0.000001 0.000002 -12.664398 65.781183 2.417214 18.759589 -2.489501 -2.085301 4.979703 -9.503586 -1.762421 6.749482 -4.160406 -0.000001 0.000003 22.188768 -28.171867 119.140110 0.000007 0.000002 -10.254001 -69.656865 -4.495112 -4.316756 0.000002 -0.000006 -12.768711 -41.909054 -14.666260 -22.151598 2.212401 -0.073600 -2.641500 -0.708012 -4.842671 -7.413585 0.000008 -0.000003 -17.950603 -15.095379 38.859617 45.092649 0.000003 -0.000003 -19.053905 4.303233 36.614950 32.398104 -2.162802 -0.306098 -2.581299 -16.565106 -17.264748 -1.654998 -0.000006 -0.000001 -18.327093 -19.218201 39.569335 -3.811115 -0.000001 -0.000000 -18.423399 7.253070 5.679082 3.297487 
23.145098 12.195692 43.293304 21.946182 2.882861 2.847396 -0.076000 1.394598 8.347809 -21.701289 -2.681154 -8.621350 0.000001 0.000000 3.321592 15.667306 -1.196915 0.721390 0.000000 -0.000004 7.732106 -25.795973 3.358012 -5.099523 0.000002 0.000002 2.173894 -4.466632 -5.238047 -4.487369 2.718097 -2.003103 4.670516 3.435653 -2.396260 -29.718085 4.147093 0.000004 0.000001 -17.481978 -21.507014 -112.357466 -0.000005 0.000004 -10.254795 54.596017 -4.467974 1.931883 -0.000001 0.000008 -12.664411 63.289264 2.733406 18.537309 -2.489503 -2.085304 4.979702 -9.333284 -1.556207 5.885613 -4.160403 -0.000001 0.000008 22.856156 -30.203773 119.790371 0.000005 -0.000002 -10.254003 -68.685065 -4.400378 -4.700641 0.000001 0.000000 -12.768701 -40.875650 -15.035632 -22.024720 2.212400 -0.073601 -2.641495 -0.174318 -5.235375 -7.186663 0.000007 -0.000001 -17.950603 -15.756529 39.103728 45.396511 0.000005 -0.000003 -19.053902 5.199834 37.815288 29.669532 -2.162802 -0.306100 -2.581297 -16.484817 -17.508538 -1.410908 -0.000005 -0.000004 -18.327093 -19.662059 39.880805 -3.617655 -0.000001 -0.000000 -18.423401 7.535475 5.592422 3.484307 
23.133898 12.227591 43.236599 21.763839 2.801995 2.639641 -0.076000 1.394600 8.347799 -21.485895 -2.461666 -8.448798 -0.000001 0.000001 3.321599 15.587815 -1.261646 0.670243 0.000001 -0.000002 7.732107 -26.435977 3.017432 -5.042050 -0.000001 0.000002 2.173905 -4.184494 -5.081486 -4.347100 2.718101 -2.003100 4.670510 4.286465 -4.008598 -29.831223 4.147091 0.000003 0.000005 -18.083272 -20.217515 -111.112834 0.000001 0.000005 -10.254792 60.281959 -4.515044 2.544245 0.000000 -0.000000 -12.664391 58.234726 2.477771 18.176849 -2.489501 -2.085301 4.979697 -9.795355 -1.847734 5.293240 -4.160409 -0.000000 0.000000 22.960173 -29.762986 119.026578 0.000003 -0.000002 -10.254004 -68.797319 -4.746234 -4.530181 0.000002 -0.000003 -12.768703 -41.469152 -15.009167 -22.184569 2.212401 -0.073600 -2.641504 -1.026816 -4.818649 -7.099548 0.000008 -0.000002 -17.950600 -14.606822 38.801915 45.462456 0.000006 0.000002 -19.053904 5.173190 37.068936 31.788865 -2.162804 -0.306100 -2.581300 -16.192592 -17.630158 -1.039844 -0.000005 -0.000003 -18.327093 -19.307087 40.063219 -3.965251 -0.000003 -0.000000 -18.423401 7.404316 5.495740 3.383271 
